<svg xmlns="http://www.w3.org/2000/svg" viewBox="0 0 53.59 49.18"><defs><style>.cls-1{fill:#fff;}</style></defs><title>sacola_1</title><g id="Camada_2" data-name="Camada 2"><g id="Layer_1" data-name="Layer 1"><path class="cls-1" d="M38.94,7a.7.7,0,0,0-.71.7.71.71,0,0,0,.71.71.7.7,0,0,0,.7-.71A.7.7,0,0,0,38.94,7Z"/><path class="cls-1" d="M15.36,7.73a.7.7,0,0,0-.71-.7.7.7,0,0,0-.7.7.7.7,0,0,0,.7.71A.71.71,0,0,0,15.36,7.73Z"/><path class="cls-1" d="M14,7.73a.7.7,0,0,1,.7-.7.7.7,0,0,1,.71.7.71.71,0,0,1-.71.71A.7.7,0,0,1,14,7.73Z"/><path class="cls-1" d="M38.94,8.44a.71.71,0,0,1-.71-.71.7.7,0,0,1,.71-.7.7.7,0,0,1,.7.7A.7.7,0,0,1,38.94,8.44Z"/><path class="cls-1" d="M50.15.93a1,1,0,0,0-1-.93H4.43a1,1,0,0,0-1,.93L0,48.1a1,1,0,0,0,.27.76,1,1,0,0,0,.73.32H52.59a1,1,0,0,0,.73-.32,1,1,0,0,0,.27-.76ZM3.92,46h-1V45h1Zm2,0h-1V45h1Zm2,0h-1V45h1Zm2,0h-1V45h1Zm2,0H11V45h1Zm2,0H13V45h1Zm2,0H15V45h1Zm2,0H17V45h1Zm2,0H19V45h1Zm2,0H21V45h1Zm2,0H23V45h1Zm2,0H25V45h1Zm2,0H27V45h1Zm2,0H29V45h1Zm2,0H31V45h1Zm2,0H33V45h1Zm2,0H35V45h1Zm2,0H37V45h1Zm2,0H39V45h1Zm-.1-35.8V18c0,8.37-5.94,15.17-13.14,15.17s-13.1-6.8-13.15-15.16V10.24a2.71,2.71,0,1,1,2,0V18c0,7.26,5,13.17,11.15,13.17S37.9,25.3,37.94,18v-7.8a2.7,2.7,0,1,1,2,0ZM42.05,46h-1V45h1Zm2,0h-1V45h1Zm2,0h-1V45h1Zm2,0h-1V45h1Zm2,0h-1V45h1Z"/></g></g></svg>